<svg xmlns="http://www.w3.org/2000/svg" viewBox="0 0 647.03 293.45"><defs><style>.cls-1{fill:#176be9;}</style></defs><g id="Camada_2" data-name="Camada 2"><g id="Camada_1-2" data-name="Camada 1"><path class="cls-1" d="M575.76,40.57a50.93,50.93,0,0,0-.7-6.16c-2-11.28-4.4-22.56,3.85-34.41-10.44,5-14,12.18-14.88,21-.32,3.17.14,6.43-.28,9.58-.87,6.58-1.31,13.75-9.59,15.66-6.06,1.4-12.21-3.43-15.83-11.83-.49-1.13-.81-2.33-1.27-3.47-1.5-3.66-.14-4.69,3.61-4.67,10.62,0,10.63-.1,6.52-10.29-.83-2.05-1.88-4-2.53-6.12-.81-2.58-2.48-3.27-5-3.32-8.1-.15-16.19-.48-26.27-.8C522.9,15.88,525,27.11,528,38c2.54,9.15,6.58,17.54,14.09,23.71s15.75,6.71,24.25,2.8c9.57-4.41,9.93-14.31,9.45-23.9"/><path class="cls-1" d="M576.56,73c-3.83-8.52-2.93-16.86,3.38-24.15,7.24-8.36,17-12.38,27.23-15.48,9.7-2.93,19.3-6,27.76-14.7,0,10,0,18.64,0,27.26,0,2-1.19,3.09-2.9,3.82-5.38,2.26-10.75,4.55-16.71,7.09l-.77-14.17a23.44,23.44,0,0,0-17.24,9.47c-4.29,5.53-2.66,12.6,3.72,15.48,5.27,2.39,10.73,1.91,16.27,1.7,10.33-.4,19.35,2.24,26.12,13.69-11.73-6.85-22.23-5-32.81-2.62a82.56,82.56,0,0,1-11.47,1.86c-9,.73-18.48-.11-22.59-9.25"/><path class="cls-1" d="M510.42,105.78c10.56-1.64,20.79-4.27,29.12-11.54,7.27-6.34,9.31-14.48,6.7-23.44-2.8-9.63-12-11.78-21.08-12.3a82,82,0,0,0-11.62.24c-10.8.89-21.46,1.26-32.12-7.16,5.1,12.28,13.68,16.16,24,17.2,5.51.56,11,.84,15.88,3.94,5.91,3.74,6.54,11,1.52,15.85a23.46,23.46,0,0,1-18.39,7l1.22-14.14c-6.26,1.68-11.89,3.2-17.54,4.7-1.79.48-3.13,1.35-3.41,3.37-1.18,8.55-2.38,17.09-3.77,27,9.59-7.47,19.53-9.14,29.53-10.7"/><path class="cls-1" d="M553.69,93.66c-10.22-3.34-17.56,2.61-23.88,11a63.64,63.64,0,0,0-5.41,8.66c-5.06,9.64-10.48,18.94-22.68,22.83,1.87.78,2.5,1.23,3.16,1.28,11.7.81,19.19-5.7,25.72-14.39s13.77-11.34,19.3-8c5.82,3.48,7,11.78,3.51,21.49-1.5,4.19-2.84,4.73-6.48,1.89-7.75-6.08-7.9-5.89-10.84,3.86-.71,2.36-1.32,4.75-2.18,7-.78,2.1-.61,3.73,1.23,5.22,6.48,5.22,12.9,10.51,20.38,16.61-.63-13.21,4.54-23.59,9.2-34.13a50.56,50.56,0,0,0,4.49-23.68,22,22,0,0,0-15.52-19.62"/><path class="cls-1" d="M581.86,126.32a62.45,62.45,0,0,1-6.08-8.21c-5.48-8.94-8.33-18-1.48-26.25a22,22,0,0,1,23.94-7.25,50.37,50.37,0,0,1,20.39,12.84c8.11,8.2,15.88,16.81,28.4,21.06-8.42,4.72-15.69,8.76-22.92,12.88-2.06,1.17-3.64.73-5.3-.77C617,129,615,127.54,613.05,126c-8-6.31-8.12-6.51.37-11.51,4-2.34,4-3.79.61-6.72-7.75-6.78-15.91-8.73-21.28-4.59-5.09,3.94-5.19,11.76.43,20.9s9,18.61,4,29.21c-.28.59-.94,1-2.35,2.47.85-12.78-5.83-21.23-12.94-29.46"/><path class="cls-1" d="M257.52,195.66c16.36-.19,32.72-.09,49.08-.1,16.53,0,16.39,0,17.52-16.68.26-3.85-1-4.53-4.39-4.51-22,.12-43.94-.43-65.89.27-26.33.84-40.27,14.74-42.45,40.79-.77,9.27,5,20.71,13.55,24.41,6,2.61,12.26,3.38,18.62,3.48,12.54.21,25.1.1,37.62.72,8.8.43,11.86,5.09,10,13.59-1.77,8.1-6.89,11.92-17.65,12.11-16.58.28-33.17.13-49.75.15-16.2,0-16,0-18.79,15.9-.81,4.55.26,5.38,4.44,5.3,11-.21,22-.07,32.94-.07V291c10.76,0,21.53.3,32.27-.06,29-1,44.12-16.5,43.84-44.77-.11-12-7.87-20.73-20-22-6-.65-12.06-.89-18.1-1-10.32-.18-20.66.2-31-.24-8-.34-13.18-7.07-10.76-14.72,3-9.45,10.29-12.36,18.84-12.46"/><path class="cls-1" d="M233.71,162.28c9.16,1.25,18.34.53,26.15.8,8.08,0,14.81-.23,21.51.08a6.05,6.05,0,0,0,6.24-5.24c3-20.93,6.36-41.82,9.7-62.71,2.92-18.36,3-18.28-15.37-17.78a5.79,5.79,0,0,0-5.57,4.92q-3.24,22.2-7.11,44.32c-1,5.82.74,13.92-4.07,16.8-4.5,2.69-11.75.95-17.78.82-10.65-.22-13.63-3.83-12-14.33,2.4-15.24,4.93-30.47,7.35-45.72.27-1.75.93-4.75.26-5.13-5.91-3.33-12.47-.88-18.73-1.56-2.38-.25-3.58.8-4,3.35-2.72,18.36-6.18,36.64-8.2,55.08-1.78,16.19,5.52,24.13,21.56,26.3"/><path class="cls-1" d="M473.62,174.41h-8.06c-20.45.09-26.08,4.27-29,24.35-1.11,7.5-5.16,7-10,6.6-5.56-.51-8.39.72-8.9,7.25-.77,10-1.36,10.24,8.56,9.89,5.08-.18,6.42.91,5.49,6.22-1.5,8.47-2.82,17-4.14,25.48l0,0-.15,1c-1.52,9.73-5.28,35.94-5.28,35.94h24.55L453,241.74a52.45,52.45,0,0,0,1.1-8.43v-.1c.29-3.59.78-7,2.69-9.12,3.62-4,11-1.22,16.71-1.35,3.52-.07,4.95-1,5.68-4.64,2.5-12.7,2.68-12.67-9.84-12.67H466c-6.89,0-8-1.87-5.25-8.33a8.62,8.62,0,0,1,7.09-5.46,46.15,46.15,0,0,1,11.35-.63c3.75.42,4.42-1,5-4.26a10.37,10.37,0,0,0-10.54-12.34"/><path class="cls-1" d="M394.15,207c-20-7.59-54,.46-66.68,26.06-7.71,15.55-8.17,38.84,4.45,50.58,7.78,7.24,19.28,8.91,22.31,9.36a50.68,50.68,0,0,0,20.32-1.35,54.51,54.51,0,0,0,25.35-13.46c3.18-3,11.59-13.12,14.91-28.69,4.12-19.35-4.27-36.29-20.66-42.5m-18.92,64.6c-15.28,7.45-29-1.38-28.76-18.39.24-16.83,10.35-29.21,25.57-30.6,10.46-.95,19.15,8.12,19.25,18.62.13,12.9-3.37,24.18-16.06,30.37"/><path class="cls-1" d="M83.9,47.27C73,45.83,62,47,52.87,46.52c-11.25,0-20.66.13-30.06-.06-3.54-.07-5.09.9-5.67,4.68Q8.89,104.87.22,158.53c-.49,3-.45,4.66,3.27,4.58,21.93-.49,44,1.9,65.76-1.37,19.8-3,35.52-13.28,43.39-32.8a98.48,98.48,0,0,0,7.57-38.65c-.53-25.74-10-39.54-36.31-43m2,78.75c-4.25,10.39-12.1,16.39-23.83,16.3-4.69,0-9.39,0-14.08,0v.22c-5.37,0-10.74-.12-16.1.05-2.68.08-4.23-.09-3.67-3.54C32,116.34,35.48,93.61,39.07,70.89c.37-2.35,1-4.25,4.1-4.12,11.6.48,23.25-.94,34.81.89A17.47,17.47,0,0,1,92.55,83.49,92.74,92.74,0,0,1,85.94,126"/><path class="cls-1" d="M451.36,160c2.8-19,6.29-38,8.26-57.12,1.41-13.77-6.47-22.33-20.4-24.31-15.38-2.2-30.87-.65-46.31-1-11.49-.22-11.32,0-13.46,11.2-.92,4.83-.18,6.63,5.35,6.6,13.65-.08,27.33-1,41,.62,4.1.47,7.33,2.09,9.12,5.89,2.79,5.94.77,9.19-5.65,9.21-9.63,0-19.27,0-28.91.09-8.16.11-16,1.95-23.1,6.69-6.21,4.16-11.48,14.28-11.79,21.75-.64,15.57,7.87,23.36,25.85,23.45,8.51,0,17,0,25.54,0q14.46,0,28.91,0c2.42,0,5.1.49,5.63-3.12m-21.62-15.17c-.4,1.73-2.68,1.09-4.17,1.12-4.46.06-8.93,0-13.4,0v-.06c-4.47,0-8.94.1-13.4,0-4.09-.12-7.86-1.36-8.31-6.06-.42-4.5,1.21-8.32,6-10.1a23.79,23.79,0,0,1,8.55-1.36c8.15,0,16.33-.41,24.43.66a3.13,3.13,0,0,1,2.78,2.82c.15,4.17-1.43,8.72-2.43,13"/><path class="cls-1" d="M172.89,75.89c-26.24-.07-47.26,16.19-52.87,40.93-4.8,21.16,3.09,38,20.9,44.71,28.58,10.73,60.62-5.17,69.18-34.32,8.62-29.4-7.2-51.23-37.21-51.32m-13.16,70.19c-8.07-.39-13.57-4.94-16-13.32-4.24-14.37,3-30.48,16.86-36.2,15-6.2,27.9,2.55,27.56,18.86-.4,18.42-12.43,31.44-28.38,30.66"/><path class="cls-1" d="M325.19,157.67h0c2.83-19.71,6.11-39.36,9.27-59,.24-1.45-.42-3.62,1.42-4.15a19.94,19.94,0,0,1,13.78.86c3.44,1.58,2.32,5.42,1.88,8.49-1.37,9.58-1.39,9.58,8.45,9.58h1.65c5.33,0,10.88-4.21,11.79-9.47.29-1.68.39-3.4.64-5.09,1.69-11.46-6.88-21-18.46-21.26-11.93-.26-23.88,0-35.82-.15a5.67,5.67,0,0,0-5.73,4.82c-2.65,17.57-5.51,35.12-8.27,52.68l0,0-5.06,28.74h23.44Z"/><path class="cls-1" d="M554.56,205.26H533c-2-.71-2.23-2.66-1.67-5.63.8-4.23,2.92-20.92,3.52-25.18-7.66,0-14.83-.18-22.52,0-.33,2.3-2.61,17.41-2.95,19.7-1.38,9.22-1.7,10.88-8.1,11.15H491.18l-1.77,12.08a10.16,10.16,0,0,0-.18,1.23l-.63,4.28,4.4,0h.53l8.8-.06c1.95.77,2.18,3,1.58,6.29-2.2,12-4.06,24.09-5.93,36.16A22.84,22.84,0,0,0,503.29,284l0,0a20,20,0,0,0,5.35,4.62,20.5,20.5,0,0,0,11.41,2.7h23.55V272.9c-4.32,0-8.81-.16-13.16-.2v0a7,7,0,0,1-1.82-.17,4.45,4.45,0,0,1-.78-.26c-5.15-2.1-6.82-6.6-5.62-14.38s2.47-15.47,3.63-23.21c.9-6,1.37-9,3.14-10.52,1-.24,2.41-.56,4.2-.85,3.66-.59,5.51-.52,7.12-.7l.8-.12a15.52,15.52,0,0,0,9.25-4.54l.27-.26a16.79,16.79,0,0,0,1.07-1.3c.14-.19.3-.34.44-.54s.19-.35.3-.52.25-.42.37-.64a16,16,0,0,0,1.77-9.41"/></g></g></svg>